<svg aria-hidden="true" style="position: absolute; width: 0; height: 0; overflow: hidden;" version="1.1" xmlns="http://www.w3.org/2000/svg" xmlns:xlink="http://www.w3.org/1999/xlink">
<defs>
<symbol id="slider-right" viewBox="0 0 32 32">
<path   d="M22.126 16.087l-5.549-5.549c-0.349-0.349-0.349-0.908 0-1.222s0.907-0.349 1.222 0l6.178 6.178c0.349 0.349 0.349 0.907 0 1.222l-6.457 6.422c-0.175 0.175-0.384 0.244-0.628 0.244s-0.454-0.070-0.628-0.244c-0.349-0.349-0.349-0.907 0-1.222l5.864-5.829z"></path>
<path  d="M8.339 15.353h9.424c0.489 0 0.873 0.384 0.873 0.873s-0.384 0.873-0.873 0.873h-9.424c-0.489 0-0.873-0.384-0.873-0.873s0.384-0.873 0.873-0.873z"></path>
</symbol>
<symbol id="slider-left" viewBox="0 0 32 32">
<path   d="M9.341 16.447l5.549 5.549c0.349 0.349 0.349 0.908 0 1.222s-0.907 0.349-1.222 0l-6.178-6.178c-0.349-0.349-0.349-0.907 0-1.222l6.457-6.422c0.175-0.175 0.384-0.244 0.628-0.244s0.454 0.070 0.628 0.244c0.349 0.349 0.349 0.907 0 1.222l-5.864 5.829z"></path>
<path   d="M23.127 17.18h-9.424c-0.489 0-0.873-0.384-0.873-0.873s0.384-0.873 0.873-0.873h9.424c0.489 0 0.873 0.384 0.873 0.873s-0.384 0.873-0.873 0.873z"></path>
</symbol>
<symbol id="icon-checkbox-checked" viewBox="0 0 32 32">
<path d="M28 0h-24c-2.2 0-4 1.8-4 4v24c0 2.2 1.8 4 4 4h24c2.2 0 4-1.8 4-4v-24c0-2.2-1.8-4-4-4zM14 24.828l-7.414-7.414 2.828-2.828 4.586 4.586 9.586-9.586 2.828 2.828-12.414 12.414z"></path>
</symbol>
<symbol id="icon-checkbox-unchecked" viewBox="0 0 32 32">
<path d="M28 0h-24c-2.2 0-4 1.8-4 4v24c0 2.2 1.8 4 4 4h24c2.2 0 4-1.8 4-4v-24c0-2.2-1.8-4-4-4zM28 28h-24v-24h24v24z"></path>
</symbol>
</defs>
</svg>